Coordinates
version=1
nRows=10
nColumns=63
inDegrees=yes

Units are S.I. units (second, meters, Newtons, ...)
If the header above contains a line with 'inDegrees', this indicates whether rotational values are in degrees (yes) or radians (no).

endheader
time	pelvis_tilt	pelvis_list	pelvis_rotation	pelvis_tx	pelvis_ty	pelvis_tz	hip_flexion_r	hip_adduction_r	hip_rotation_r	knee_angle_r	knee_angle_r_beta	ankle_angle_r	subtalar_angle_r	mtp_angle_r	hip_flexion_l	hip_adduction_l	hip_rotation_l	knee_angle_l	knee_angle_l_beta	ankle_angle_l	subtalar_angle_l	mtp_angle_l	L5_S1_Flex_Ext	L5_S1_Lat_Bending	L5_S1_axial_rotation	L4_L5_Flex_Ext	L4_L5_Lat_Bending	L4_L5_axial_rotation	L3_L4_Flex_Ext	L3_L4_Lat_Bending	L3_L4_axial_rotation	L2_L3_Flex_Ext	L2_L3_Lat_Bending	L2_L3_axial_rotation	L1_L2_Flex_Ext	L1_L2_Lat_Bending	L1_L2_axial_rotation	L1_T12_Flex_Ext	L1_T12_Lat_Bending	L1_T12_axial_rotation	Abs_r3	Abs_r2	Abs_r1	Abs_t1	Abs_t2	neck_flexion	neck_bending	neck_rotation	arm_flex_r	arm_add_r	arm_rot_r	elbow_flex_r	pro_sup_r	wrist_flex_r	wrist_dev_r	arm_flex_l	arm_add_l	arm_rot_l	elbow_flex_l	pro_sup_l	wrist_flex_l	wrist_dev_l
      0.81481481	      0.23168189	     -2.80827682	     93.67675124	      0.27870711	      0.72753181	      0.65985385	      2.40713153	      0.88613401	     -0.31389324	     10.03041327	      0.17506374	     24.44378935	    -12.71232839	      0.00000000	      1.37765815	     -3.00318292	      4.68366319	      7.28943887	      0.12722471	     23.48110548	      4.01236011	      0.00000000	      0.17059249	      0.25290844	     -1.37954469	      0.31680731	      0.33636822	     -1.46576623	      0.28026640	      0.61492157	     -1.46576623	      0.19497015	      0.61492157	     -1.20710160	      0.15841218	      0.51573088	     -1.12088006	      0.09747655	      0.39175517	     -1.03465851	      1.21852508	      2.86095080	     -7.67261368	      0.00000000	      0.00000000	     27.51025265	      3.99847000	      0.06464959	     13.47551446	     -7.41631228	     58.54020393	     52.46731617	     71.74860915	     14.85844117	      6.02941377	      1.35056801	    -18.50193355	     38.90294670	     68.35213044	     88.65655167	    -11.29085340	     -2.34381259
      0.83333333	      0.26688087	     -2.94332035	     93.03446128	      0.28012513	      0.72720409	      0.65962390	      2.73438266	      1.03754110	      0.79446901	     10.33451793	      0.18037136	     24.47798583	    -13.45213202	      0.00000000	      1.61446885	     -3.09500621	      3.77832313	      7.62749188	      0.13312485	     23.82307345	      3.93943099	      0.00000000	      0.16713944	      0.26844696	     -1.17378879	      0.31039465	      0.35703446	     -1.24715059	      0.27459338	      0.65270194	     -1.24715059	      0.19102366	      0.65270194	     -1.02706519	      0.15520568	      0.54741704	     -0.95370339	      0.09550347	      0.41582434	     -0.88034159	      1.19386028	      3.03672571	     -6.52826109	      0.00000000	      0.00000000	     27.77097341	      2.86066776	     -1.99960242	     12.37047242	     -7.45810178	     55.74038095	     52.79492016	     76.39502732	     16.40650586	      7.62774324	      2.75760808	    -19.07625869	     42.39603776	     67.75275402	     88.81288999	    -11.04235426	     -1.83095353
      0.85185185	      0.32845824	     -3.25986097	     92.80778153	      0.28165247	      0.72651284	      0.65993184	      3.27357976	      1.18384499	      1.00814524	     10.65191993	      0.18591107	     24.71945553	    -13.55239558	      0.00000000	      2.24660828	     -3.22630185	      3.51088465	      8.18671587	      0.14288515	     24.13468096	      3.75314194	      0.00000000	      0.18110489	      0.28980162	     -1.24360146	      0.33632989	      0.38543615	     -1.32132656	      0.29753723	      0.70462366	     -1.32132656	      0.20698478	      0.70462366	     -1.08815128	      0.16817400	      0.59096346	     -1.01042619	      0.10348334	      0.44890271	     -0.93270110	      1.29361413	      3.27829389	     -6.91653827	      0.00000000	      0.00000000	     27.90821434	      2.82924444	     -2.30477445	     12.92569993	     -7.49572449	     56.93957827	     52.66072281	     77.35572048	     16.52130223	      8.38415748	      3.60006459	    -19.92182977	     45.04512120	     67.57165870	     89.02253901	    -10.38866522	     -1.70747155
      0.87037037	      0.24237596	     -3.47161584	     92.46225262	      0.28343044	      0.72596526	      0.66084680	      3.81161247	      1.21011419	      1.49791058	     11.11444335	      0.19398363	     24.85516005	    -14.00232937	      0.00000000	      2.84678726	     -3.24175672	      2.76451026	      8.90011606	      0.15533633	     24.55594042	      4.04531313	      0.00000000	      0.16497017	      0.28867093	     -1.05959887	      0.30636611	      0.38393234	     -1.12582380	      0.27102950	      0.70187450	     -1.12582380	      0.18854441	      0.70187450	     -0.92714901	      0.15319130	      0.58865776	     -0.86092408	      0.09426396	      0.44715127	     -0.79469915	      1.17836545	      3.26550332	     -5.89317105	      0.00000000	      0.00000000	     27.98101815	      1.90389163	     -4.44325393	     12.64957181	     -8.02631825	     55.83200911	     53.56788365	     79.65937252	     15.63148361	      8.30863181	      6.94195153	    -20.94524506	     51.90963761	     66.97076455	     89.04642296	    -12.36813679	     -1.59860945
      0.88888889	      0.09554823	     -3.87226928	     92.16069196	      0.28606238	      0.72497362	      0.66178056	      4.58872641	      1.20518716	      1.70614555	     11.66843683	      0.20365264	     25.15387910	    -14.09457936	      0.00000000	      3.69973483	     -3.21656593	      2.55428862	      9.74113051	      0.17001480	     24.88323617	      3.85039656	      0.00000000	      0.16966998	      0.28333266	     -1.10571639	      0.31509413	      0.37683243	     -1.17482367	      0.27875082	      0.68889502	     -1.17482367	      0.19391582	      0.68889502	     -0.96750184	      0.15755555	      0.57777195	     -0.89839457	      0.09694943	      0.43888228	     -0.82928730	      1.21193573	      3.20511566	     -6.14966287	      0.00000000	      0.00000000	     27.97674362	      2.37983413	     -4.18050193	     13.51548602	     -8.27269988	     56.72415126	     54.25531520	     79.91660736	     15.32434758	      8.24740932	      8.72881695	    -21.92527888	     55.12869369	     67.34870521	     88.98197181	    -11.87363900	     -1.68589537
      0.90740741	     -0.16332609	     -4.12614285	     91.78723542	      0.28907677	      0.72430735	      0.66298100	      5.23995406	      1.11824237	      2.08307458	     12.27005527	      0.21415286	     25.22309509	    -14.08920545	      0.00000000	      4.40906694	     -3.10963890	      2.32574127	     10.62913046	      0.18551332	     24.90470839	      3.63004972	      0.00000000	      0.14110283	      0.26205333	     -1.07613340	      0.26204206	      0.34853093	     -1.14339174	      0.23181783	      0.63715647	     -1.14339174	      0.16126642	      0.63715647	     -0.94161673	      0.13102808	      0.53437915	     -0.87435839	      0.08062616	      0.40592061	     -0.80710005	      1.00788338	      2.96439969	     -5.98513114	      0.00000000	      0.00000000	     27.88996715	      2.95430007	     -4.13105577	     14.30280813	     -8.72783296	     57.16589733	     55.39523901	     79.12179360	     13.89867849	      6.78533530	     11.05798742	    -22.91769878	     58.24437912	     68.14915477	     88.55610640	    -11.84063181	     -1.98931165
      0.92592593	     -0.42369908	     -4.27484133	     91.27412541	      0.29256111	      0.72379664	      0.66385153	      5.66490680	      1.09764602	      2.74419852	     12.65989219	      0.22095680	     25.11278144	    -14.31145691	      0.00000000	      4.77464064	     -3.01060275	      2.15637519	     11.13612382	      0.19436203	     24.69569872	      3.00778598	      0.00000000	      0.10318822	      0.24369110	     -1.10942497	      0.19163084	      0.32410916	     -1.17876403	      0.16952792	      0.59251053	     -1.17876403	      0.11793381	      0.59251053	     -0.97074685	      0.09582058	      0.49693488	     -0.90140779	      0.05896175	      0.37747751	     -0.83206872	      0.73706310	      2.75668242	     -6.17028884	      0.00000000	      0.00000000	     27.60931523	      3.72228406	     -3.59238097	     16.05947053	     -9.33493662	     60.47136671	     56.53039545	     73.47706316	     10.46111920	      3.64448075	     12.31045099	    -24.10242229	     58.91309375	     69.46967245	     87.12082977	    -11.28284330	     -3.49628058
      0.94444444	     -0.65696503	     -4.37155380	     90.89857135	      0.29593712	      0.72333821	      0.66508834	      6.02646678	      1.09436194	      3.46019199	     13.02146641	      0.22726746	     25.11538846	    -14.30748809	      0.00000000	      5.25997589	     -2.93170303	      2.36023474	     11.94002307	      0.20839272	     24.38339935	      2.23784509	      0.00000000	      0.07092742	      0.23896228	     -1.21662171	      0.13171931	      0.31781983	     -1.29266056	      0.11652665	      0.58101288	     -1.29266056	      0.08106295	      0.58101288	     -1.06454399	      0.06586320	      0.48729187	     -0.98850514	      0.04052793	      0.37015256	     -0.91246628	      0.50662745	      2.70318905	     -6.76648494	      0.00000000	      0.00000000	     26.84871032	      4.83298385	     -2.25349602	     18.11543307	     -9.56649000	     64.11886447	     57.26817046	     68.72839297	      8.58703094	     -0.59303488	     12.36429067	    -25.36703717	     56.25088195	     70.81719549	     83.90994448	     -5.70995382	     -4.99775309
      0.96296296	     -0.87907396	     -4.36703301	     90.42910179	      0.29923939	      0.72302744	      0.66622397	      6.24395438	      1.09967522	      4.18932116	     13.30338033	      0.23218779	     25.00915774	    -14.26732526	      0.00000000	      5.58190436	     -2.85414178	      2.46061147	     12.67137530	      0.22115722	     24.04221179	      1.31785282	      0.00000000	      0.06016971	      0.25041573	     -1.32091855	      0.11174116	      0.33305292	     -1.40347596	      0.09885281	      0.60886080	     -1.40347596	      0.06876796	      0.60886080	     -1.15580373	      0.05587359	      0.51064775	     -1.07324632	      0.03438097	      0.38789396	     -0.99068891	      0.42978620	      2.83275279	     -7.34655270	      0.00000000	      0.00000000	     25.12459667	      5.89614804	     -0.39696602	     19.95968963	     -9.56951709	     67.20984483	     57.85469754	     66.28302229	      7.99436566	     -4.41569557	     11.32110351	    -26.63125522	     51.25861383	     71.98114071	     81.02596795	      0.52475467	     -5.89810758
      0.98148148	     -1.13922709	     -4.29789576	     89.63008389	      0.30260629	      0.72291218	      0.66736579	      6.41486794	      1.05787186	      5.08214839	     13.57293446	      0.23689240	     24.84975965	    -14.00449598	      0.00000000	      5.75982260	     -2.76709596	      2.02955599	     13.30857402	      0.23227844	     23.73536960	      0.60655215	      0.00000000	      0.06589004	      0.27690094	     -1.36448349	      0.12236439	      0.36827825	     -1.44976371	      0.10825075	      0.67325695	     -1.44976371	      0.07530573	      0.67325695	     -1.19392305	      0.06118549	      0.56465640	     -1.10864284	      0.03764957	      0.42891956	     -1.02336262	      0.47064596	      3.13235883	     -7.58884782	      0.00000000	      0.00000000	     22.80107366	      6.38432663	      1.49542813	     21.10972112	     -9.57035580	     68.28855503	     58.58868683	     67.75122557	      8.21021249	     -6.12445661	      9.33104098	    -27.82923572	     44.46405777	     72.81472372	     79.47176616	      4.56062855	     -6.61056240
